<svg xmlns="http://www.w3.org/2000/svg" xmlns:xlink="http://www.w3.org/1999/xlink" width="500" height="500" preserveAspectRatio="xMidYMid meet" version="1.0" viewBox="0 0 375 375" zoomAndPan="magnify"><defs><filter id="d7e403e702" width="100%" height="100%" x="0%" y="0%"><feColorMatrix color-interpolation-filters="sRGB" values="0 0 0 0 1 0 0 0 0 1 0 0 0 0 1 0 0 0 1 0"/></filter><clipPath id="994d2706c9"><path d="M 107.914062 37.5 L 277 37.5 L 277 185.789062 L 107.914062 185.789062 Z M 107.914062 37.5" clip-rule="nonzero"/></clipPath><clipPath id="5ab5182863"><path d="M 107.914062 81.25 C 107.914062 128.34375 192.4375 185.789062 192.4375 185.789062 C 192.4375 185.789062 276.585938 127.941406 276.957031 81.25 C 276.957031 57.144531 257.316406 37.5 233.210938 37.5 C 214.683594 37.5 198.722656 49.367188 192.4375 65.664062 C 186.148438 49.367188 170.1875 37.5 151.660156 37.5 C 127.554688 37.5 107.914062 57.144531 107.914062 81.25" clip-rule="nonzero"/></clipPath><mask id="95cc879119"><g filter="url(#d7e403e702)"><rect width="450" height="450" x="-37.5" y="-37.5" fill="#000" fill-opacity=".82"/></g></mask><clipPath id="a9a4716f79"><path d="M 0.167969 0.773438 L 134.847656 0.773438 L 134.847656 118.789062 L 0.167969 118.789062 Z M 0.167969 0.773438" clip-rule="nonzero"/></clipPath><clipPath id="3a65547d13"><path d="M 0.167969 35.589844 C 0.167969 73.074219 67.433594 118.789062 67.433594 118.789062 C 67.433594 118.789062 134.40625 72.75 134.703125 35.589844 C 134.703125 16.40625 119.070312 0.773438 99.886719 0.773438 C 85.140625 0.773438 72.441406 10.21875 67.433594 23.1875 C 62.429688 10.21875 49.730469 0.773438 34.984375 0.773438 C 15.800781 0.773438 0.167969 16.40625 0.167969 35.589844" clip-rule="nonzero"/></clipPath><clipPath id="14737be804"><rect width="135" height="119" x="0" y="0"/></clipPath><clipPath id="e6e785eba6"><path d="M 100 85 L 210.980469 85 L 210.980469 203 L 100 203 Z M 100 85" clip-rule="nonzero"/></clipPath></defs><rect width="450" height="450" x="-37.5" y="-37.5" fill="#fff" fill-opacity="1"/><rect width="450" height="450" x="-37.5" y="-37.5" fill="#fff" fill-opacity="1"/><g clip-path="url(#994d2706c9)"><g clip-path="url(#5ab5182863)"><path fill="#64ebb6" fill-opacity="1" fill-rule="nonzero" d="M 107.914062 37.5 L 276.804688 37.5 L 276.804688 185.789062 L 107.914062 185.789062 Z M 107.914062 37.5"/></g></g><g mask="url(#95cc879119)"><g><g clip-path="url(#14737be804)" transform="matrix(1, 0, 0, 1, 125, 67)"><g clip-path="url(#a9a4716f79)"><g clip-path="url(#3a65547d13)"><path fill="#1b9ce4" fill-opacity="1" fill-rule="nonzero" d="M 0.167969 0.773438 L 134.582031 0.773438 L 134.582031 118.789062 L 0.167969 118.789062 Z M 0.167969 0.773438"/></g></g></g></g></g><g clip-path="url(#e6e785eba6)"><path fill="#fff" fill-opacity="1" fill-rule="nonzero" d="M 175.464844 194.96875 L 175.464844 167.710938 C 175.464844 164.085938 178.40625 161.144531 182.03125 161.144531 L 204.417969 161.144531 C 208.042969 161.144531 210.984375 158.203125 210.984375 154.578125 L 210.984375 127.859375 C 210.984375 124.230469 208.042969 121.292969 204.417969 121.292969 C 204.417969 121.292969 201.929688 121.292969 198.613281 121.292969 C 195.296875 121.292969 191.152344 121.292969 187.835938 121.292969 C 184.292969 120.710938 179.316406 120.710938 177.65625 119.050781 C 171.023438 109.097656 184.292969 84.214844 163.699219 85.070312 C 160.730469 85.058594 157.019531 85.054688 154.050781 85.054688 C 151.082031 85.054688 148.855469 85.054688 148.855469 85.054688 C 145.226562 85.054688 142.285156 87.992188 142.285156 91.621094 L 142.285156 114.722656 C 142.285156 116.539062 141.550781 118.179688 140.363281 119.367188 C 139.175781 120.554688 137.53125 121.296875 135.71875 121.328125 C 124.574219 125.6875 98.03125 115.734375 101.003906 134.839844 C 101.003906 138.742188 101.003906 143.691406 101.003906 147.652344 C 101.003906 151.609375 101.003906 154.578125 101.003906 154.578125 C 101.003906 158.203125 103.945312 161.144531 107.570312 161.144531 C 107.570312 161.144531 120.082031 161.144531 128.421875 161.144531 C 130.507812 161.144531 132.332031 161.144531 133.636719 161.144531 C 136.1875 160.523438 139.503906 162.183594 141.164062 163.84375 C 147.796875 177.113281 134.527344 206.972656 158.875 201.535156 C 160.546875 201.535156 162.214844 201.535156 163.699219 201.535156 C 166.671875 201.535156 168.898438 201.535156 168.898438 201.535156 C 172.523438 201.535156 175.464844 198.597656 175.464844 194.96875 Z M 175.464844 194.96875"/></g><path fill="#fff" fill-opacity="1" fill-rule="nonzero" d="M 204.910156 148.972656 C 205.441406 150.597656 205.183594 152.421875 204.148438 153.800781 C 203.082031 155.226562 201.328125 155.890625 199.648438 156.257812 C 197.625 156.699219 195.523438 156.839844 193.464844 156.996094 C 191.160156 157.167969 188.847656 157.265625 186.535156 157.285156 C 183.902344 157.308594 181.265625 157.226562 178.640625 157.046875 C 177.59375 156.976562 177.597656 158.605469 178.640625 158.675781 C 183.648438 159.015625 188.675781 158.996094 193.679688 158.605469 C 195.917969 158.433594 198.222656 158.28125 200.410156 157.75 C 202.324219 157.289062 204.1875 156.40625 205.410156 154.816406 C 206.765625 153.054688 207.171875 150.648438 206.480469 148.539062 C 206.15625 147.546875 204.582031 147.972656 204.910156 148.972656 Z M 204.910156 148.972656"/><path fill="#fff" fill-opacity="1" fill-rule="nonzero" d="M 195.140625 152.6875 C 190.910156 153.3125 186.621094 153.472656 182.351562 153.214844 C 181.304688 153.148438 181.308594 154.777344 182.351562 154.84375 C 186.773438 155.113281 191.191406 154.902344 195.570312 154.257812 C 196.007812 154.195312 196.25 153.644531 196.140625 153.257812 C 196.011719 152.789062 195.578125 152.625 195.140625 152.6875 Z M 195.140625 152.6875"/><path fill="#fff" fill-opacity="1" fill-rule="nonzero" d="M 145.761719 104.953125 C 144.9375 109.636719 146.195312 114.4375 145.199219 119.089844 C 144.800781 120.957031 144.054688 122.800781 142.671875 124.160156 C 141.171875 125.632812 139.09375 126.234375 137.0625 126.523438 C 134.308594 126.910156 131.46875 126.921875 128.699219 126.808594 C 127.648438 126.765625 127.652344 128.394531 128.699219 128.4375 C 131.34375 128.546875 134.023438 128.511719 136.65625 128.203125 C 138.90625 127.9375 141.183594 127.40625 143.015625 126.003906 C 146.550781 123.292969 147.261719 118.515625 147.199219 114.347656 C 147.152344 111.367188 146.808594 108.347656 147.332031 105.386719 C 147.511719 104.363281 145.941406 103.921875 145.761719 104.953125 Z M 145.761719 104.953125"/><path fill="#fff" fill-opacity="1" fill-rule="nonzero" d="M 148.273438 123.320312 C 148.84375 126.53125 145.953125 129.03125 143.1875 129.890625 C 139.679688 130.980469 135.953125 130.402344 132.347656 130.613281 C 131.304688 130.671875 131.296875 132.300781 132.347656 132.238281 C 136.382812 132.003906 140.628906 132.703125 144.484375 131.15625 C 147.8125 129.820312 150.511719 126.65625 149.84375 122.886719 C 149.660156 121.859375 148.089844 122.292969 148.273438 123.320312 Z M 148.273438 123.320312"/><g fill="#183e9f" fill-opacity="1"><g><g><path d="M 30.765625 0 L 24.234375 0 L 24.234375 -15.46875 L 9.703125 -15.46875 L 9.703125 0 L 3.171875 0 L 3.171875 -31.75 C 3.171875 -31.78125 3.113281 -32.015625 3 -32.453125 C 2.894531 -32.898438 2.785156 -33.359375 2.671875 -33.828125 C 2.566406 -34.304688 2.515625 -34.578125 2.515625 -34.640625 L 9.703125 -34.640625 L 9.703125 -20.15625 L 24.234375 -20.15625 L 24.234375 -34.640625 L 30.765625 -34.640625 Z M 30.765625 0" transform="translate(33.430233, 233.111003)"/></g></g></g><g fill="#183e9f" fill-opacity="1"><g><g><path d="M 1.234375 -11.78125 C 1.234375 -15.25 2.28125 -18.175781 4.375 -20.5625 C 6.476562 -22.945312 9.25 -24.140625 12.6875 -24.140625 C 16.15625 -24.140625 18.929688 -22.953125 21.015625 -20.578125 C 23.097656 -18.210938 24.140625 -15.28125 24.140625 -11.78125 C 24.140625 -8.28125 23.097656 -5.347656 21.015625 -2.984375 C 18.929688 -0.617188 16.15625 0.5625 12.6875 0.5625 C 9.21875 0.5625 6.441406 -0.617188 4.359375 -2.984375 C 2.273438 -5.347656 1.234375 -8.28125 1.234375 -11.78125 Z M 12.6875 -20.25 C 11.363281 -20.25 10.28125 -19.742188 9.4375 -18.734375 C 8.601562 -17.734375 8.066406 -16.644531 7.828125 -15.46875 C 7.597656 -14.300781 7.484375 -13.054688 7.484375 -11.734375 C 7.484375 -10.410156 7.597656 -9.164062 7.828125 -8 C 8.066406 -6.832031 8.601562 -5.742188 9.4375 -4.734375 C 10.28125 -3.722656 11.363281 -3.21875 12.6875 -3.21875 C 13.726562 -3.21875 14.617188 -3.484375 15.359375 -4.015625 C 16.097656 -4.554688 16.632812 -5.285156 16.96875 -6.203125 C 17.300781 -7.117188 17.535156 -8.015625 17.671875 -8.890625 C 17.816406 -9.773438 17.890625 -10.722656 17.890625 -11.734375 C 17.890625 -12.742188 17.816406 -13.691406 17.671875 -14.578125 C 17.535156 -15.460938 17.300781 -16.359375 16.96875 -17.265625 C 16.632812 -18.179688 16.097656 -18.90625 15.359375 -19.4375 C 14.617188 -19.976562 13.726562 -20.25 12.6875 -20.25 Z M 12.6875 -20.25" transform="translate(67.220061, 233.111003)"/></g></g></g><g fill="#183e9f" fill-opacity="1"><g><g><path d="M 18.59375 -7.328125 C 18.59375 -4.898438 17.675781 -2.960938 15.84375 -1.515625 C 14.019531 -0.0664062 11.863281 0.65625 9.375 0.65625 C 6.59375 0.65625 3.972656 -0.0195312 1.515625 -1.375 L 3.546875 -5.25 C 5.691406 -3.988281 7.472656 -3.359375 8.890625 -3.359375 C 9.898438 -3.359375 10.742188 -3.617188 11.421875 -4.140625 C 12.109375 -4.660156 12.453125 -5.410156 12.453125 -6.390625 C 12.453125 -7.242188 12.09375 -7.953125 11.375 -8.515625 C 10.664062 -9.085938 9.804688 -9.546875 8.796875 -9.890625 C 7.785156 -10.234375 6.769531 -10.632812 5.75 -11.09375 C 4.726562 -11.550781 3.859375 -12.253906 3.140625 -13.203125 C 2.429688 -14.148438 2.078125 -15.332031 2.078125 -16.75 C 2.078125 -19.113281 2.984375 -20.9375 4.796875 -22.21875 C 6.617188 -23.5 8.742188 -24.140625 11.171875 -24.140625 C 13.847656 -24.140625 16.164062 -23.648438 18.125 -22.671875 L 16.140625 -18.6875 C 14.753906 -19.757812 13.191406 -20.296875 11.453125 -20.296875 C 10.566406 -20.296875 9.804688 -20.082031 9.171875 -19.65625 C 8.546875 -19.238281 8.234375 -18.617188 8.234375 -17.796875 C 8.234375 -17.003906 8.585938 -16.351562 9.296875 -15.84375 C 10.003906 -15.34375 10.867188 -14.910156 11.890625 -14.546875 C 12.921875 -14.191406 13.941406 -13.773438 14.953125 -13.296875 C 15.960938 -12.828125 16.820312 -12.09375 17.53125 -11.09375 C 18.238281 -10.101562 18.59375 -8.847656 18.59375 -7.328125 Z M 18.59375 -7.328125" transform="translate(92.586093, 233.111003)"/></g></g></g><g fill="#183e9f" fill-opacity="1"><g><g><path d="M 25.078125 -12.015625 C 25.078125 -8.421875 24.113281 -5.441406 22.1875 -3.078125 C 20.269531 -0.710938 17.5625 0.46875 14.0625 0.46875 C 11.851562 0.46875 10.097656 -0.0351562 8.796875 -1.046875 C 8.859375 0.253906 8.890625 1.171875 8.890625 1.703125 L 8.890625 7.671875 C 9.273438 9.242188 9.5 10.109375 9.5625 10.265625 L 3.171875 10.265625 L 3.171875 -16.890625 C 3.171875 -19.859375 2.710938 -22.003906 1.796875 -23.328125 L 7.71875 -24.046875 C 8.03125 -23.191406 8.265625 -22.242188 8.421875 -21.203125 C 9.085938 -22.117188 10.050781 -22.84375 11.3125 -23.375 C 12.570312 -23.914062 13.785156 -24.1875 14.953125 -24.1875 C 18.140625 -24.1875 20.625 -22.984375 22.40625 -20.578125 C 24.1875 -18.179688 25.078125 -15.328125 25.078125 -12.015625 Z M 18.890625 -11.78125 C 18.890625 -13.863281 18.445312 -15.75 17.5625 -17.4375 C 16.675781 -19.125 15.285156 -19.96875 13.390625 -19.96875 C 12.535156 -19.96875 11.691406 -19.738281 10.859375 -19.28125 C 10.023438 -18.820312 9.367188 -18.234375 8.890625 -17.515625 L 8.890625 -9.796875 C 8.890625 -7.992188 9.253906 -6.5 9.984375 -5.3125 C 10.710938 -4.132812 11.910156 -3.546875 13.578125 -3.546875 C 14.878906 -3.546875 15.945312 -4.023438 16.78125 -4.984375 C 17.613281 -5.953125 18.171875 -7.007812 18.453125 -8.15625 C 18.742188 -9.3125 18.890625 -10.519531 18.890625 -11.78125 Z M 18.890625 -11.78125" transform="translate(112.935703, 233.111003)"/></g></g></g><g fill="#183e9f" fill-opacity="1"><g><g><path d="M 8.75 0 L 3.078125 0 L 3.078125 -20.96875 C 3.078125 -21 3.035156 -21.203125 2.953125 -21.578125 C 2.878906 -21.960938 2.796875 -22.375 2.703125 -22.8125 C 2.609375 -23.25 2.5625 -23.484375 2.5625 -23.515625 L 8.75 -23.515625 Z M 8.46875 -34.6875 C 9.195312 -33.96875 9.5625 -33.101562 9.5625 -32.09375 C 9.5625 -31.082031 9.207031 -30.21875 8.5 -29.5 C 7.789062 -28.789062 6.929688 -28.4375 5.921875 -28.4375 C 4.910156 -28.4375 4.046875 -28.789062 3.328125 -29.5 C 2.617188 -30.21875 2.265625 -31.082031 2.265625 -32.09375 C 2.265625 -33.101562 2.617188 -33.96875 3.328125 -34.6875 C 4.046875 -35.414062 4.910156 -35.78125 5.921875 -35.78125 C 6.929688 -35.78125 7.78125 -35.414062 8.46875 -34.6875 Z M 8.46875 -34.6875" transform="translate(139.248226, 233.111003)"/></g></g></g><g fill="#183e9f" fill-opacity="1"><g><g><path d="M 15.46875 -0.515625 C 13.363281 0.140625 11.503906 0.46875 9.890625 0.46875 C 7.835938 0.46875 6.335938 0 5.390625 -0.9375 C 4.441406 -1.882812 3.96875 -3.398438 3.96875 -5.484375 L 3.96875 -19.78125 L 0.09375 -19.78125 L 0.09375 -22.90625 C 1.289062 -22.9375 2.363281 -23.363281 3.3125 -24.1875 C 4.257812 -25.007812 4.96875 -25.9375 5.4375 -26.96875 C 5.914062 -28.007812 6.296875 -29.148438 6.578125 -30.390625 L 10.703125 -30.390625 C 10.066406 -27.703125 9.75 -25.410156 9.75 -23.515625 L 15.46875 -23.515625 L 14.34375 -19.78125 L 9.75 -19.78125 L 9.75 -6.765625 C 9.75 -4.648438 10.410156 -3.59375 11.734375 -3.59375 C 12.460938 -3.59375 13.488281 -3.75 14.8125 -4.0625 Z M 15.46875 -0.515625" transform="translate(151.126725, 233.111003)"/></g></g></g><g fill="#183e9f" fill-opacity="1"><g><g><path d="M 24.421875 -0.90625 C 24.140625 -0.832031 23.707031 -0.703125 23.125 -0.515625 C 22.539062 -0.328125 22.054688 -0.175781 21.671875 -0.0625 C 21.296875 0.0390625 20.847656 0.140625 20.328125 0.234375 C 19.804688 0.328125 19.34375 0.375 18.9375 0.375 C 17.988281 0.375 17.179688 0.0820312 16.515625 -0.5 C 15.859375 -1.082031 15.414062 -1.847656 15.1875 -2.796875 C 13.613281 -0.585938 11.25 0.515625 8.09375 0.515625 C 6.164062 0.515625 4.570312 -0.0195312 3.3125 -1.09375 C 2.050781 -2.164062 1.421875 -3.644531 1.421875 -5.53125 C 1.421875 -7.175781 1.8125 -8.566406 2.59375 -9.703125 C 3.382812 -10.835938 4.457031 -11.679688 5.8125 -12.234375 C 7.175781 -12.785156 8.535156 -13.175781 9.890625 -13.40625 C 11.242188 -13.644531 12.695312 -13.765625 14.25 -13.765625 L 14.25 -16.84375 C 14.25 -18.070312 13.976562 -18.929688 13.4375 -19.421875 C 12.90625 -19.910156 12.039062 -20.15625 10.84375 -20.15625 C 9.164062 -20.15625 7.144531 -19.242188 4.78125 -17.421875 L 2.46875 -21.15625 C 5.332031 -23.113281 8.515625 -24.09375 12.015625 -24.09375 C 14.546875 -24.09375 16.492188 -23.441406 17.859375 -22.140625 C 19.234375 -20.847656 19.921875 -18.941406 19.921875 -16.421875 L 19.921875 -6.15625 C 19.921875 -4.570312 20.300781 -3.78125 21.0625 -3.78125 C 21.3125 -3.78125 22.097656 -3.972656 23.421875 -4.359375 Z M 14.25 -8.796875 L 14.25 -9.890625 C 9.632812 -9.890625 7.328125 -8.628906 7.328125 -6.109375 C 7.328125 -5.410156 7.601562 -4.851562 8.15625 -4.4375 C 8.71875 -4.03125 9.359375 -3.828125 10.078125 -3.828125 C 11.304688 -3.828125 12.304688 -4.335938 13.078125 -5.359375 C 13.859375 -6.390625 14.25 -7.535156 14.25 -8.796875 Z M 14.25 -8.796875" transform="translate(166.601902, 233.111003)"/></g></g></g><g fill="#183e9f" fill-opacity="1"><g><g><path d="M 8.75 0 L 2.984375 0 L 2.984375 -33.84375 C 2.984375 -33.875 2.941406 -34.078125 2.859375 -34.453125 C 2.785156 -34.828125 2.703125 -35.234375 2.609375 -35.671875 C 2.515625 -36.117188 2.46875 -36.359375 2.46875 -36.390625 L 8.75 -36.390625 Z M 8.75 0" transform="translate(189.98029, 233.111003)"/></g></g></g><g fill="#183e9f" fill-opacity="1"><g><g><path d="M 28.53125 -34.59375 L 16.5625 0.09375 L 11.921875 0.09375 L 0 -34.59375 L 6.90625 -34.59375 C 11.195312 -22.101562 13.453125 -15.507812 13.671875 -14.8125 C 14.117188 -13.425781 14.578125 -11.628906 15.046875 -9.421875 C 15.492188 -11.566406 16.109375 -13.726562 16.890625 -15.90625 L 23.28125 -34.59375 Z M 28.53125 -34.59375" transform="translate(212.743467, 233.111003)"/></g></g></g><g fill="#183e9f" fill-opacity="1"><g><g><path d="M 8.75 0 L 3.078125 0 L 3.078125 -20.96875 C 3.078125 -21 3.035156 -21.203125 2.953125 -21.578125 C 2.878906 -21.960938 2.796875 -22.375 2.703125 -22.8125 C 2.609375 -23.25 2.5625 -23.484375 2.5625 -23.515625 L 8.75 -23.515625 Z M 8.46875 -34.6875 C 9.195312 -33.96875 9.5625 -33.101562 9.5625 -32.09375 C 9.5625 -31.082031 9.207031 -30.21875 8.5 -29.5 C 7.789062 -28.789062 6.929688 -28.4375 5.921875 -28.4375 C 4.910156 -28.4375 4.046875 -28.789062 3.328125 -29.5 C 2.617188 -30.21875 2.265625 -31.082031 2.265625 -32.09375 C 2.265625 -33.101562 2.617188 -33.96875 3.328125 -34.6875 C 4.046875 -35.414062 4.910156 -35.78125 5.921875 -35.78125 C 6.929688 -35.78125 7.78125 -35.414062 8.46875 -34.6875 Z M 8.46875 -34.6875" transform="translate(241.280253, 233.111003)"/></g></g></g><g fill="#183e9f" fill-opacity="1"><g><g><path d="M 16.65625 -24 L 15.71875 -18.359375 L 15.53125 -18.359375 C 14.132812 -18.359375 12.921875 -17.972656 11.890625 -17.203125 C 10.867188 -16.429688 9.867188 -15.367188 8.890625 -14.015625 L 8.890625 0 L 3.21875 0 L 3.21875 -17.1875 C 3.21875 -20.050781 2.710938 -22.160156 1.703125 -23.515625 L 7.71875 -24 C 8.40625 -22.414062 8.78125 -20.757812 8.84375 -19.03125 C 9.664062 -20.414062 10.796875 -21.585938 12.234375 -22.546875 C 13.671875 -23.515625 15.144531 -24 16.65625 -24 Z M 16.65625 -24" transform="translate(253.158752, 233.111003)"/></g></g></g><g fill="#183e9f" fill-opacity="1"><g><g><path d="M 11.734375 -4.3125 L 13.921875 -4.3125 C 14.859375 -4.3125 15.660156 -4.285156 16.328125 -4.234375 C 16.992188 -4.191406 17.734375 -4.066406 18.546875 -3.859375 C 19.367188 -3.648438 20.039062 -3.363281 20.5625 -3 C 21.082031 -2.644531 21.515625 -2.117188 21.859375 -1.421875 C 22.210938 -0.722656 22.390625 0.113281 22.390625 1.09375 C 22.390625 3.238281 21.703125 5.082031 20.328125 6.625 C 18.953125 8.164062 17.316406 9.257812 15.421875 9.90625 C 13.535156 10.5625 11.550781 10.890625 9.46875 10.890625 C 8.394531 10.890625 7.359375 10.800781 6.359375 10.625 C 5.367188 10.445312 4.367188 10.160156 3.359375 9.765625 C 2.347656 9.378906 1.535156 8.773438 0.921875 7.953125 C 0.304688 7.128906 0 6.132812 0 4.96875 C 0 3.644531 0.398438 2.4375 1.203125 1.34375 C 2.003906 0.257812 2.992188 -0.550781 4.171875 -1.09375 L 4.171875 -1.28125 C 3.597656 -1.4375 3.085938 -1.828125 2.640625 -2.453125 C 2.203125 -3.085938 1.984375 -3.769531 1.984375 -4.5 C 1.984375 -4.75 2.148438 -5.039062 2.484375 -5.375 C 2.816406 -5.707031 3.289062 -6.203125 3.90625 -6.859375 C 4.519531 -7.523438 5.078125 -8.285156 5.578125 -9.140625 C 2.773438 -10.710938 1.375 -13.03125 1.375 -16.09375 C 1.375 -18.488281 2.25 -20.441406 4 -21.953125 C 5.75 -23.472656 7.851562 -24.234375 10.3125 -24.234375 C 11.007812 -24.234375 11.894531 -24.113281 12.96875 -23.875 C 14.039062 -23.632812 14.84375 -23.515625 15.375 -23.515625 C 16.957031 -23.515625 19.769531 -23.691406 23.8125 -24.046875 L 22.765625 -20.109375 L 18.734375 -20.109375 C 18.546875 -20.109375 18.1875 -20.1875 17.65625 -20.34375 C 18.664062 -19.050781 19.171875 -17.648438 19.171875 -16.140625 C 19.171875 -13.710938 18.273438 -11.738281 16.484375 -10.21875 C 14.703125 -8.707031 12.566406 -7.953125 10.078125 -7.953125 C 9.484375 -7.953125 8.960938 -7.742188 8.515625 -7.328125 C 8.078125 -6.921875 7.859375 -6.421875 7.859375 -5.828125 C 7.859375 -4.816406 9.148438 -4.3125 11.734375 -4.3125 Z M 12.40625 0 L 8.09375 0 C 7.425781 0.34375 6.875 0.882812 6.4375 1.625 C 6 2.375 5.78125 3.125 5.78125 3.875 C 5.78125 4.882812 6.234375 5.625 7.140625 6.09375 C 8.054688 6.570312 9.066406 6.8125 10.171875 6.8125 C 10.992188 6.8125 11.765625 6.75 12.484375 6.625 C 13.210938 6.5 13.929688 6.285156 14.640625 5.984375 C 15.359375 5.679688 15.925781 5.222656 16.34375 4.609375 C 16.769531 3.992188 16.984375 3.242188 16.984375 2.359375 C 16.984375 0.785156 15.457031 0 12.40625 0 Z M 8.09375 -12.59375 C 8.625 -11.707031 9.347656 -11.265625 10.265625 -11.265625 C 11.179688 -11.265625 11.914062 -11.707031 12.46875 -12.59375 C 13.019531 -13.476562 13.296875 -14.597656 13.296875 -15.953125 C 13.296875 -17.304688 13.019531 -18.429688 12.46875 -19.328125 C 11.914062 -20.234375 11.179688 -20.6875 10.265625 -20.6875 C 9.347656 -20.6875 8.617188 -20.234375 8.078125 -19.328125 C 7.546875 -18.429688 7.28125 -17.304688 7.28125 -15.953125 C 7.28125 -14.597656 7.550781 -13.476562 8.09375 -12.59375 Z M 8.09375 -12.59375" transform="translate(269.675065, 233.111003)"/></g></g></g><g fill="#183e9f" fill-opacity="1"><g><g><path d="M 22.0625 -13.921875 C 22.0625 -12.023438 21.253906 -11.078125 19.640625 -11.078125 L 7.234375 -11.078125 C 7.234375 -9.054688 7.769531 -7.25 8.84375 -5.65625 C 9.914062 -4.0625 11.414062 -3.265625 13.34375 -3.265625 C 14.320312 -3.265625 15.335938 -3.5 16.390625 -3.96875 C 17.453125 -4.445312 18.347656 -5.050781 19.078125 -5.78125 L 21.484375 -1.984375 C 20.503906 -1.160156 19.21875 -0.535156 17.625 -0.109375 C 16.03125 0.304688 14.507812 0.515625 13.0625 0.515625 C 9.40625 0.515625 6.519531 -0.578125 4.40625 -2.765625 C 2.289062 -4.960938 1.234375 -7.90625 1.234375 -11.59375 C 1.234375 -15.09375 2.21875 -18.066406 4.1875 -20.515625 C 6.15625 -22.960938 8.847656 -24.1875 12.265625 -24.1875 C 15.347656 -24.1875 17.75 -23.253906 19.46875 -21.390625 C 21.195312 -19.523438 22.0625 -17.035156 22.0625 -13.921875 Z M 16.140625 -15.859375 C 16.140625 -17.148438 15.804688 -18.210938 15.140625 -19.046875 C 14.484375 -19.878906 13.539062 -20.296875 12.3125 -20.296875 C 11.039062 -20.296875 9.914062 -19.710938 8.9375 -18.546875 C 7.96875 -17.378906 7.453125 -16.132812 7.390625 -14.8125 L 15.328125 -14.8125 C 15.867188 -14.8125 16.140625 -15.160156 16.140625 -15.859375 Z M 16.140625 -15.859375" transform="translate(292.296267, 233.111003)"/></g></g></g><g fill="#183e9f" fill-opacity="1"><g><g><path d="M 23 0 L 17.28125 0 L 17.28125 -15.328125 C 17.28125 -16.210938 17.226562 -16.929688 17.125 -17.484375 C 17.03125 -18.035156 16.75 -18.539062 16.28125 -19 C 15.8125 -19.457031 15.148438 -19.6875 14.296875 -19.6875 C 13.597656 -19.6875 12.703125 -19.394531 11.609375 -18.8125 C 10.523438 -18.226562 9.71875 -17.648438 9.1875 -17.078125 L 9.1875 0 L 3.5 0 L 3.5 -16.84375 C 3.5 -20 3.007812 -22.160156 2.03125 -23.328125 L 8 -24.046875 C 8.375 -23.222656 8.640625 -22.210938 8.796875 -21.015625 C 11.140625 -23.128906 13.539062 -24.1875 16 -24.1875 C 18.550781 -24.1875 20.351562 -23.472656 21.40625 -22.046875 C 22.46875 -20.628906 23 -18.582031 23 -15.90625 Z M 23 0" transform="translate(315.674655, 233.111003)"/></g></g></g><g fill="#183e9f" fill-opacity="1"><g><g><path d="M 24.375 -0.140625 L 18.640625 0.421875 C 18.390625 -0.265625 18.15625 -1.207031 17.9375 -2.40625 C 17.300781 -1.5 16.359375 -0.773438 15.109375 -0.234375 C 13.867188 0.296875 12.632812 0.5625 11.40625 0.5625 C 8.21875 0.5625 5.738281 -0.640625 3.96875 -3.046875 C 2.207031 -5.460938 1.328125 -8.3125 1.328125 -11.59375 C 1.328125 -15.1875 2.28125 -18.164062 4.1875 -20.53125 C 6.09375 -22.90625 8.800781 -24.09375 12.3125 -24.09375 C 14.582031 -24.09375 16.332031 -23.585938 17.5625 -22.578125 C 17.53125 -23.429688 17.515625 -24.394531 17.515625 -25.46875 L 17.515625 -33.796875 L 16.796875 -36.34375 L 23.1875 -36.34375 L 23.1875 -6.71875 C 23.1875 -3.78125 23.582031 -1.585938 24.375 -0.140625 Z M 17.515625 -6.109375 L 17.515625 -13.8125 C 17.515625 -15.613281 17.148438 -17.101562 16.421875 -18.28125 C 15.691406 -19.46875 14.492188 -20.0625 12.828125 -20.0625 C 11.535156 -20.0625 10.46875 -19.582031 9.625 -18.625 C 8.789062 -17.664062 8.234375 -16.609375 7.953125 -15.453125 C 7.671875 -14.296875 7.53125 -13.085938 7.53125 -11.828125 C 7.53125 -9.742188 7.96875 -7.859375 8.84375 -6.171875 C 9.726562 -4.484375 11.117188 -3.640625 13.015625 -3.640625 C 13.867188 -3.640625 14.710938 -3.867188 15.546875 -4.328125 C 16.378906 -4.785156 17.035156 -5.378906 17.515625 -6.109375 Z M 17.515625 -6.109375" transform="translate(68.012521, 281.798808)"/></g></g></g><g fill="#183e9f" fill-opacity="1"><g><g><path d="M 22.0625 -13.921875 C 22.0625 -12.023438 21.253906 -11.078125 19.640625 -11.078125 L 7.234375 -11.078125 C 7.234375 -9.054688 7.769531 -7.25 8.84375 -5.65625 C 9.914062 -4.0625 11.414062 -3.265625 13.34375 -3.265625 C 14.320312 -3.265625 15.335938 -3.5 16.390625 -3.96875 C 17.453125 -4.445312 18.347656 -5.050781 19.078125 -5.78125 L 21.484375 -1.984375 C 20.503906 -1.160156 19.21875 -0.535156 17.625 -0.109375 C 16.03125 0.304688 14.507812 0.515625 13.0625 0.515625 C 9.40625 0.515625 6.519531 -0.578125 4.40625 -2.765625 C 2.289062 -4.960938 1.234375 -7.90625 1.234375 -11.59375 C 1.234375 -15.09375 2.21875 -18.066406 4.1875 -20.515625 C 6.15625 -22.960938 8.847656 -24.1875 12.265625 -24.1875 C 15.347656 -24.1875 17.75 -23.253906 19.46875 -21.390625 C 21.195312 -19.523438 22.0625 -17.035156 22.0625 -13.921875 Z M 16.140625 -15.859375 C 16.140625 -17.148438 15.804688 -18.210938 15.140625 -19.046875 C 14.484375 -19.878906 13.539062 -20.296875 12.3125 -20.296875 C 11.039062 -20.296875 9.914062 -19.710938 8.9375 -18.546875 C 7.96875 -17.378906 7.453125 -16.132812 7.390625 -14.8125 L 15.328125 -14.8125 C 15.867188 -14.8125 16.140625 -15.160156 16.140625 -15.859375 Z M 16.140625 -15.859375" transform="translate(94.41969, 281.798808)"/></g></g></g><g fill="#183e9f" fill-opacity="1"><g><g><path d="M 8.75 0 L 2.984375 0 L 2.984375 -33.84375 C 2.984375 -33.875 2.941406 -34.078125 2.859375 -34.453125 C 2.785156 -34.828125 2.703125 -35.234375 2.609375 -35.671875 C 2.515625 -36.117188 2.46875 -36.359375 2.46875 -36.390625 L 8.75 -36.390625 Z M 8.75 0" transform="translate(128.682756, 281.798808)"/></g></g></g><g fill="#183e9f" fill-opacity="1"><g><g><path d="M 24.421875 -0.90625 C 24.140625 -0.832031 23.707031 -0.703125 23.125 -0.515625 C 22.539062 -0.328125 22.054688 -0.175781 21.671875 -0.0625 C 21.296875 0.0390625 20.847656 0.140625 20.328125 0.234375 C 19.804688 0.328125 19.34375 0.375 18.9375 0.375 C 17.988281 0.375 17.179688 0.0820312 16.515625 -0.5 C 15.859375 -1.082031 15.414062 -1.847656 15.1875 -2.796875 C 13.613281 -0.585938 11.25 0.515625 8.09375 0.515625 C 6.164062 0.515625 4.570312 -0.0195312 3.3125 -1.09375 C 2.050781 -2.164062 1.421875 -3.644531 1.421875 -5.53125 C 1.421875 -7.175781 1.8125 -8.566406 2.59375 -9.703125 C 3.382812 -10.835938 4.457031 -11.679688 5.8125 -12.234375 C 7.175781 -12.785156 8.535156 -13.175781 9.890625 -13.40625 C 11.242188 -13.644531 12.695312 -13.765625 14.25 -13.765625 L 14.25 -16.84375 C 14.25 -18.070312 13.976562 -18.929688 13.4375 -19.421875 C 12.90625 -19.910156 12.039062 -20.15625 10.84375 -20.15625 C 9.164062 -20.15625 7.144531 -19.242188 4.78125 -17.421875 L 2.46875 -21.15625 C 5.332031 -23.113281 8.515625 -24.09375 12.015625 -24.09375 C 14.546875 -24.09375 16.492188 -23.441406 17.859375 -22.140625 C 19.234375 -20.847656 19.921875 -18.941406 19.921875 -16.421875 L 19.921875 -6.15625 C 19.921875 -4.570312 20.300781 -3.78125 21.0625 -3.78125 C 21.3125 -3.78125 22.097656 -3.972656 23.421875 -4.359375 Z M 14.25 -8.796875 L 14.25 -9.890625 C 9.632812 -9.890625 7.328125 -8.628906 7.328125 -6.109375 C 7.328125 -5.410156 7.601562 -4.851562 8.15625 -4.4375 C 8.71875 -4.03125 9.359375 -3.828125 10.078125 -3.828125 C 11.304688 -3.828125 12.304688 -4.335938 13.078125 -5.359375 C 13.859375 -6.390625 14.25 -7.535156 14.25 -8.796875 Z M 14.25 -8.796875" transform="translate(140.561255, 281.798808)"/></g></g></g><g fill="#183e9f" fill-opacity="1"><g><g><path d="M 25.984375 -24.28125 C 25.984375 -20.875 24.773438 -18.296875 22.359375 -16.546875 C 19.941406 -14.796875 16.984375 -13.921875 13.484375 -13.921875 L 9.609375 -13.921875 L 9.609375 0 L 3.125 0 L 3.125 -31.75 C 3.125 -31.820312 3.015625 -32.289062 2.796875 -33.15625 C 2.578125 -34.019531 2.445312 -34.515625 2.40625 -34.640625 L 13.390625 -34.640625 C 17.179688 -34.640625 20.226562 -33.828125 22.53125 -32.203125 C 24.832031 -30.578125 25.984375 -27.9375 25.984375 -24.28125 Z M 19.078125 -24.28125 C 19.078125 -26.050781 18.617188 -27.4375 17.703125 -28.4375 C 16.785156 -29.445312 15.441406 -29.953125 13.671875 -29.953125 L 9.65625 -29.953125 L 9.65625 -18.5 L 13.625 -18.5 C 15.332031 -18.5 16.664062 -19.023438 17.625 -20.078125 C 18.59375 -21.140625 19.078125 -22.539062 19.078125 -24.28125 Z M 19.078125 -24.28125" transform="translate(174.824321, 281.798808)"/></g></g></g><g fill="#183e9f" fill-opacity="1"><g><g><path d="M 27.171875 -0.90625 C 26.941406 -0.832031 26.382812 -0.660156 25.5 -0.390625 C 24.625 -0.128906 23.894531 0.0625 23.3125 0.1875 C 22.726562 0.3125 22.164062 0.375 21.625 0.375 C 20.675781 0.375 19.867188 0.0820312 19.203125 -0.5 C 18.546875 -1.082031 18.125 -1.847656 17.9375 -2.796875 C 15.695312 -0.492188 13.109375 0.65625 10.171875 0.65625 C 7.585938 0.65625 5.765625 -0.0546875 4.703125 -1.484375 C 3.648438 -2.921875 3.125 -4.96875 3.125 -7.625 L 3.125 -20.96875 L 2.609375 -23.515625 L 8.890625 -23.515625 L 8.890625 -8.609375 C 8.890625 -5.453125 9.914062 -3.875 11.96875 -3.875 C 13.363281 -3.875 14.546875 -4.300781 15.515625 -5.15625 C 16.492188 -6.007812 16.984375 -7.113281 16.984375 -8.46875 L 16.984375 -20.96875 C 16.984375 -21 16.9375 -21.203125 16.84375 -21.578125 C 16.75 -21.960938 16.65625 -22.363281 16.5625 -22.78125 C 16.46875 -23.207031 16.421875 -23.453125 16.421875 -23.515625 L 22.765625 -23.515625 L 22.765625 -6.25 C 22.765625 -4.601562 23.160156 -3.78125 23.953125 -3.78125 C 24.015625 -3.78125 24.753906 -3.972656 26.171875 -4.359375 Z M 27.171875 -0.90625" transform="translate(202.036007, 281.798808)"/></g></g></g><g fill="#183e9f" fill-opacity="1"><g><g><path d="M 22.0625 -13.921875 C 22.0625 -12.023438 21.253906 -11.078125 19.640625 -11.078125 L 7.234375 -11.078125 C 7.234375 -9.054688 7.769531 -7.25 8.84375 -5.65625 C 9.914062 -4.0625 11.414062 -3.265625 13.34375 -3.265625 C 14.320312 -3.265625 15.335938 -3.5 16.390625 -3.96875 C 17.453125 -4.445312 18.347656 -5.050781 19.078125 -5.78125 L 21.484375 -1.984375 C 20.503906 -1.160156 19.21875 -0.535156 17.625 -0.109375 C 16.03125 0.304688 14.507812 0.515625 13.0625 0.515625 C 9.40625 0.515625 6.519531 -0.578125 4.40625 -2.765625 C 2.289062 -4.960938 1.234375 -7.90625 1.234375 -11.59375 C 1.234375 -15.09375 2.21875 -18.066406 4.1875 -20.515625 C 6.15625 -22.960938 8.847656 -24.1875 12.265625 -24.1875 C 15.347656 -24.1875 17.75 -23.253906 19.46875 -21.390625 C 21.195312 -19.523438 22.0625 -17.035156 22.0625 -13.921875 Z M 16.140625 -15.859375 C 16.140625 -17.148438 15.804688 -18.210938 15.140625 -19.046875 C 14.484375 -19.878906 13.539062 -20.296875 12.3125 -20.296875 C 11.039062 -20.296875 9.914062 -19.710938 8.9375 -18.546875 C 7.96875 -17.378906 7.453125 -16.132812 7.390625 -14.8125 L 15.328125 -14.8125 C 15.867188 -14.8125 16.140625 -15.160156 16.140625 -15.859375 Z M 16.140625 -15.859375" transform="translate(228.206556, 281.798808)"/></g></g></g><g fill="#183e9f" fill-opacity="1"><g><g><path d="M 16.65625 -24 L 15.71875 -18.359375 L 15.53125 -18.359375 C 14.132812 -18.359375 12.921875 -17.972656 11.890625 -17.203125 C 10.867188 -16.429688 9.867188 -15.367188 8.890625 -14.015625 L 8.890625 0 L 3.21875 0 L 3.21875 -17.1875 C 3.21875 -20.050781 2.710938 -22.160156 1.703125 -23.515625 L 7.71875 -24 C 8.40625 -22.414062 8.78125 -20.757812 8.84375 -19.03125 C 9.664062 -20.414062 10.796875 -21.585938 12.234375 -22.546875 C 13.671875 -23.515625 15.144531 -24 16.65625 -24 Z M 16.65625 -24" transform="translate(251.584944, 281.798808)"/></g></g></g><g fill="#183e9f" fill-opacity="1"><g><g><path d="M 15.46875 -0.515625 C 13.363281 0.140625 11.503906 0.46875 9.890625 0.46875 C 7.835938 0.46875 6.335938 0 5.390625 -0.9375 C 4.441406 -1.882812 3.96875 -3.398438 3.96875 -5.484375 L 3.96875 -19.78125 L 0.09375 -19.78125 L 0.09375 -22.90625 C 1.289062 -22.9375 2.363281 -23.363281 3.3125 -24.1875 C 4.257812 -25.007812 4.96875 -25.9375 5.4375 -26.96875 C 5.914062 -28.007812 6.296875 -29.148438 6.578125 -30.390625 L 10.703125 -30.390625 C 10.066406 -27.703125 9.75 -25.410156 9.75 -23.515625 L 15.46875 -23.515625 L 14.34375 -19.78125 L 9.75 -19.78125 L 9.75 -6.765625 C 9.75 -4.648438 10.410156 -3.59375 11.734375 -3.59375 C 12.460938 -3.59375 13.488281 -3.75 14.8125 -4.0625 Z M 15.46875 -0.515625" transform="translate(268.101257, 281.798808)"/></g></g></g><g fill="#183e9f" fill-opacity="1"><g><g><path d="M 24.421875 -0.90625 C 24.140625 -0.832031 23.707031 -0.703125 23.125 -0.515625 C 22.539062 -0.328125 22.054688 -0.175781 21.671875 -0.0625 C 21.296875 0.0390625 20.847656 0.140625 20.328125 0.234375 C 19.804688 0.328125 19.34375 0.375 18.9375 0.375 C 17.988281 0.375 17.179688 0.0820312 16.515625 -0.5 C 15.859375 -1.082031 15.414062 -1.847656 15.1875 -2.796875 C 13.613281 -0.585938 11.25 0.515625 8.09375 0.515625 C 6.164062 0.515625 4.570312 -0.0195312 3.3125 -1.09375 C 2.050781 -2.164062 1.421875 -3.644531 1.421875 -5.53125 C 1.421875 -7.175781 1.8125 -8.566406 2.59375 -9.703125 C 3.382812 -10.835938 4.457031 -11.679688 5.8125 -12.234375 C 7.175781 -12.785156 8.535156 -13.175781 9.890625 -13.40625 C 11.242188 -13.644531 12.695312 -13.765625 14.25 -13.765625 L 14.25 -16.84375 C 14.25 -18.070312 13.976562 -18.929688 13.4375 -19.421875 C 12.90625 -19.910156 12.039062 -20.15625 10.84375 -20.15625 C 9.164062 -20.15625 7.144531 -19.242188 4.78125 -17.421875 L 2.46875 -21.15625 C 5.332031 -23.113281 8.515625 -24.09375 12.015625 -24.09375 C 14.546875 -24.09375 16.492188 -23.441406 17.859375 -22.140625 C 19.234375 -20.847656 19.921875 -18.941406 19.921875 -16.421875 L 19.921875 -6.15625 C 19.921875 -4.570312 20.300781 -3.78125 21.0625 -3.78125 C 21.3125 -3.78125 22.097656 -3.972656 23.421875 -4.359375 Z M 14.25 -8.796875 L 14.25 -9.890625 C 9.632812 -9.890625 7.328125 -8.628906 7.328125 -6.109375 C 7.328125 -5.410156 7.601562 -4.851562 8.15625 -4.4375 C 8.71875 -4.03125 9.359375 -3.828125 10.078125 -3.828125 C 11.304688 -3.828125 12.304688 -4.335938 13.078125 -5.359375 C 13.859375 -6.390625 14.25 -7.535156 14.25 -8.796875 Z M 14.25 -8.796875" transform="translate(283.576434, 281.798808)"/></g></g></g><g fill="#183e9f" fill-opacity="1"><g><g><path d="M 9.84375 0 L 1.75 0 L 1.75 -13.421875 C 1.75 -13.441406 1.722656 -13.550781 1.671875 -13.75 C 1.628906 -13.957031 1.582031 -14.171875 1.53125 -14.390625 C 1.476562 -14.609375 1.453125 -14.734375 1.453125 -14.765625 L 3.625 -14.765625 L 3.625 -1.40625 L 9.84375 -1.40625 Z M 9.84375 0" transform="translate(119.508219, 320.188785)"/></g></g></g><g fill="#183e9f" fill-opacity="1"><g><g><path d="M 12.453125 0 L 10.359375 0 L 8.65625 -5.078125 L 3.796875 -5.078125 L 2.0625 0 L 0.359375 0 L 5.5 -14.765625 L 7.34375 -14.765625 Z M 8.1875 -6.453125 L 6.25 -12.296875 L 4.265625 -6.453125 Z M 8.1875 -6.453125" transform="translate(129.935507, 320.188785)"/></g></g></g><g fill="#183e9f" fill-opacity="1"><g><g><path d="M 10.328125 0 L 1.75 0 L 1.75 -13.421875 C 1.75 -13.441406 1.722656 -13.550781 1.671875 -13.75 C 1.628906 -13.957031 1.582031 -14.171875 1.53125 -14.390625 C 1.476562 -14.609375 1.453125 -14.734375 1.453125 -14.765625 L 10.328125 -14.765625 L 10.328125 -13.359375 L 3.625 -13.359375 L 3.625 -8.28125 L 8.828125 -8.28125 L 8.828125 -6.890625 L 3.625 -6.890625 L 3.625 -1.40625 L 10.328125 -1.40625 Z M 10.328125 0" transform="translate(147.402243, 320.188785)"/></g></g></g><g fill="#183e9f" fill-opacity="1"><g><g><path d="M 0.65625 -0.859375 L 1.375 -2.515625 C 1.820312 -2.117188 2.363281 -1.800781 3 -1.5625 C 3.632812 -1.332031 4.242188 -1.21875 4.828125 -1.21875 C 5.597656 -1.21875 6.285156 -1.429688 6.890625 -1.859375 C 7.503906 -2.296875 7.8125 -2.925781 7.8125 -3.75 C 7.8125 -4.457031 7.578125 -5.050781 7.109375 -5.53125 C 6.640625 -6.019531 6.070312 -6.410156 5.40625 -6.703125 C 4.75 -6.992188 4.09375 -7.296875 3.4375 -7.609375 C 2.78125 -7.929688 2.21875 -8.382812 1.75 -8.96875 C 1.28125 -9.550781 1.046875 -10.265625 1.046875 -11.109375 C 1.046875 -12.316406 1.503906 -13.257812 2.421875 -13.9375 C 3.347656 -14.625 4.429688 -14.96875 5.671875 -14.96875 C 6.984375 -14.96875 8.253906 -14.601562 9.484375 -13.875 L 8.5625 -12.515625 C 7.613281 -13.191406 6.644531 -13.53125 5.65625 -13.53125 C 4.882812 -13.53125 4.257812 -13.335938 3.78125 -12.953125 C 3.3125 -12.578125 3.078125 -12.019531 3.078125 -11.28125 C 3.078125 -10.851562 3.203125 -10.472656 3.453125 -10.140625 C 3.703125 -9.816406 4.023438 -9.539062 4.421875 -9.3125 C 4.816406 -9.082031 5.253906 -8.859375 5.734375 -8.640625 C 6.210938 -8.421875 6.691406 -8.179688 7.171875 -7.921875 C 7.660156 -7.660156 8.101562 -7.363281 8.5 -7.03125 C 8.894531 -6.707031 9.21875 -6.289062 9.46875 -5.78125 C 9.71875 -5.269531 9.84375 -4.679688 9.84375 -4.015625 C 9.84375 -2.640625 9.351562 -1.582031 8.375 -0.84375 C 7.40625 -0.113281 6.203125 0.25 4.765625 0.25 C 3.441406 0.25 2.070312 -0.117188 0.65625 -0.859375 Z M 0.65625 -0.859375" transform="translate(158.539574, 320.188785)"/></g></g></g><g fill="#183e9f" fill-opacity="1"><g><g><path d="M 3.625 0 L 1.75 0 L 1.75 -13.421875 L 1.4375 -14.765625 L 5.859375 -14.765625 C 7.398438 -14.765625 8.613281 -14.398438 9.5 -13.671875 C 10.382812 -12.953125 10.828125 -11.828125 10.828125 -10.296875 C 10.828125 -8.878906 10.359375 -7.78125 9.421875 -7 C 8.492188 -6.226562 7.3125 -5.84375 5.875 -5.84375 L 3.625 -5.84375 Z M 3.625 -7.21875 L 5.84375 -7.21875 C 6.769531 -7.21875 7.503906 -7.5 8.046875 -8.0625 C 8.585938 -8.625 8.859375 -9.367188 8.859375 -10.296875 C 8.859375 -11.265625 8.597656 -12.015625 8.078125 -12.546875 C 7.554688 -13.085938 6.816406 -13.359375 5.859375 -13.359375 L 3.625 -13.359375 Z M 3.625 -7.21875" transform="translate(169.007444, 320.188785)"/></g></g></g><g fill="#183e9f" fill-opacity="1"><g><g><path d="M 10.328125 0 L 1.75 0 L 1.75 -13.421875 C 1.75 -13.441406 1.722656 -13.550781 1.671875 -13.75 C 1.628906 -13.957031 1.582031 -14.171875 1.53125 -14.390625 C 1.476562 -14.609375 1.453125 -14.734375 1.453125 -14.765625 L 10.328125 -14.765625 L 10.328125 -13.359375 L 3.625 -13.359375 L 3.625 -8.28125 L 8.828125 -8.28125 L 8.828125 -6.890625 L 3.625 -6.890625 L 3.625 -1.40625 L 10.328125 -1.40625 Z M 10.328125 0" transform="translate(180.672215, 320.188785)"/></g></g></g><g fill="#183e9f" fill-opacity="1"><g><g><path d="M 12.15625 0 L 9.953125 0 L 6.140625 -6.671875 C 5.828125 -6.640625 5.320312 -6.625 4.625 -6.625 L 3.609375 -6.625 L 3.609375 0 L 1.71875 0 L 1.71875 -13.421875 C 1.71875 -13.441406 1.691406 -13.550781 1.640625 -13.75 C 1.597656 -13.957031 1.550781 -14.171875 1.5 -14.390625 C 1.457031 -14.609375 1.4375 -14.734375 1.4375 -14.765625 L 5.84375 -14.765625 C 9.164062 -14.765625 10.828125 -13.40625 10.828125 -10.6875 C 10.828125 -9.875 10.550781 -9.117188 10 -8.421875 C 9.457031 -7.722656 8.796875 -7.253906 8.015625 -7.015625 Z M 3.609375 -8.015625 L 5.234375 -8.015625 C 6.359375 -8.015625 7.242188 -8.21875 7.890625 -8.625 C 8.535156 -9.039062 8.859375 -9.769531 8.859375 -10.8125 C 8.859375 -11.632812 8.566406 -12.265625 7.984375 -12.703125 C 7.410156 -13.140625 6.695312 -13.359375 5.84375 -13.359375 L 3.609375 -13.359375 Z M 3.609375 -8.015625" transform="translate(191.809546, 320.188785)"/></g></g></g><g fill="#183e9f" fill-opacity="1"><g><g><path d="M 12.453125 0 L 10.359375 0 L 8.65625 -5.078125 L 3.796875 -5.078125 L 2.0625 0 L 0.359375 0 L 5.5 -14.765625 L 7.34375 -14.765625 Z M 8.1875 -6.453125 L 6.25 -12.296875 L 4.265625 -6.453125 Z M 8.1875 -6.453125" transform="translate(203.79891, 320.188785)"/></g></g></g><g fill="#183e9f" fill-opacity="1"><g><g><path d="M 12.71875 0.09375 L 11.515625 0.09375 L 3.3125 -12.46875 L 3.3125 0 L 1.765625 0 L 1.765625 -13.421875 C 1.765625 -13.441406 1.738281 -13.550781 1.6875 -13.75 C 1.644531 -13.957031 1.597656 -14.171875 1.546875 -14.390625 C 1.503906 -14.609375 1.484375 -14.734375 1.484375 -14.765625 L 4 -14.765625 L 11.171875 -3.71875 L 11.171875 -14.765625 L 12.71875 -14.765625 Z M 12.71875 0.09375" transform="translate(216.59974, 320.188785)"/></g></g></g><g fill="#183e9f" fill-opacity="1"><g><g><path d="M 10.734375 0 L 0.703125 0 L 0.703125 -1.359375 L 8.375 -13.359375 L 1.15625 -13.359375 L 1.15625 -14.765625 L 10.625 -14.765625 L 10.625 -13.40625 L 2.96875 -1.40625 L 10.890625 -1.40625 Z M 10.734375 0" transform="translate(231.084345, 320.188785)"/></g></g></g><g fill="#183e9f" fill-opacity="1"><g><g><path d="M 12.453125 0 L 10.359375 0 L 8.65625 -5.078125 L 3.796875 -5.078125 L 2.0625 0 L 0.359375 0 L 5.5 -14.765625 L 7.34375 -14.765625 Z M 8.1875 -6.453125 L 6.25 -12.296875 L 4.265625 -6.453125 Z M 8.1875 -6.453125" transform="translate(242.667968, 320.188785)"/></g></g></g></svg>